# xmcd
#
# Track frame offsets:
#  150
#  12556
#  24236
#  37584
#  52135
#  63308
#  75383
#  86305
#  103598
#  115063
#  126612
#  137673
#
# Disc length: 2046 seconds
#
# Revision: 0
# Processed by: cddbd v1.4PL0 Copyright (c) Steve Scherf et al.
# Submitted via: AltoMP3_Maker 3.0
#
DISCID=9107fc0c
DTITLE=Churchmen - On The Journey Home - Churchmen - On The Journey Home
DYEAR=1900
DGENRE=
TTITLE0=Get Onboard
TTITLE1=Keep Me Free From Every Sin
TTITLE2=Springtime In Heaven
TTITLE3=In His Arms
TTITLE4=He Will Forgive You
TTITLE5=Bouquet In Heaven
TTITLE6=Going Up
TTITLE7=He Paid It All
TTITLE8=By The Spirit I'm Lifted
TTITLE9=Place Prepared For Me
TTITLE10=When He Calls Your Name
TTITLE11=We'll Still Sing On
EXTD=
EXTT0=
EXTT1=
EXTT2=
EXTT3=
EXTT4=
EXTT5=
EXTT6=
EXTT7=
EXTT8=
EXTT9=
EXTT10=
EXTT11=
PLAYORDER=
